<svg xmlns="http://www.w3.org/2000/svg" width="940" height="210" viewBox="0 0 940 210" font-family="-apple-system,BlinkMacSystemFont,Segoe UI,sans-serif">
<rect width="940" height="210" fill="#f6f3ec" rx="8"/>
<text x="24" y="32" fill="#2a2620" font-size="15" font-weight="600">측정의 진화 — CFR에서 시작한다</text>
<line x1="24" y1="46" x2="916" y2="46" stroke="#ddd5c4" stroke-width="1"/>

<rect x="20" y="66" width="280" height="110" fill="#fffdf8" stroke="#e4ddcd" stroke-width="1" rx="10"/>
<rect x="20" y="66" width="5" height="110" fill="#b35a38" rx="2"/>
<rect x="38" y="82" width="50" height="20" fill="#b35a38" fill-opacity="0.14" stroke="#b35a38" stroke-width="1" rx="10"/>
<text x="63" y="96" fill="#b35a38" font-size="11" text-anchor="middle">지금</text>
<text x="38" y="128" fill="#2a2620" font-size="15" font-weight="600">① CFR (배포당 escape)</text>
<text x="38" y="152" fill="#7a7466" font-size="12">지금 가능 · caught 불필요</text>
<line x1="306" y1="121" x2="324" y2="121" stroke="#b8b0a1" stroke-width="2"/>
<polygon points="324,116 332,121 324,126" fill="#b8b0a1"/>

<rect x="330" y="66" width="280" height="110" fill="#fffdf8" stroke="#e4ddcd" stroke-width="1" rx="10"/>
<rect x="330" y="66" width="5" height="110" fill="#8a8478" rx="2"/>
<rect x="348" y="82" width="50" height="20" fill="#8a8478" fill-opacity="0.14" stroke="#8a8478" stroke-width="1" rx="10"/>
<text x="373" y="96" fill="#8a8478" font-size="11" text-anchor="middle">다음</text>
<text x="348" y="128" fill="#2a2620" font-size="15" font-weight="600">② DRE / DDP / PCE</text>
<text x="348" y="152" fill="#7a7466" font-size="12">검증 효율 · ‘개발 테스트’ 쌓이면</text>
<line x1="616" y1="121" x2="634" y2="121" stroke="#b8b0a1" stroke-width="2"/>
<polygon points="634,116 642,121 634,126" fill="#b8b0a1"/>

<rect x="640" y="66" width="280" height="110" fill="#fffdf8" stroke="#e4ddcd" stroke-width="1" rx="10"/>
<rect x="640" y="66" width="5" height="110" fill="#5f7355" rx="2"/>
<rect x="658" y="82" width="50" height="20" fill="#5f7355" fill-opacity="0.14" stroke="#5f7355" stroke-width="1" rx="10"/>
<text x="683" y="96" fill="#5f7355" font-size="11" text-anchor="middle">이후</text>
<text x="658" y="128" fill="#2a2620" font-size="15" font-weight="600">③ Capture-Recapture</text>
<text x="658" y="152" fill="#7a7466" font-size="12">두 검증의 겹침으로 놓친 결함 추정</text>
</svg>
