<svg xmlns="http://www.w3.org/2000/svg" width="660" height="340" viewBox="0 0 660 340" font-family="-apple-system,BlinkMacSystemFont,Segoe UI,sans-serif">
<rect width="660" height="340" fill="#f6f3ec" rx="8"/>
<text x="36" y="36" fill="#2a2620" font-size="15.5" font-weight="600">코드에 심은 결함을, 테스트는 얼마나 잡았나</text>
<line x1="36" y1="52" x2="624" y2="52" stroke="#ddd5c4" stroke-width="1"/>
<text x="36" y="92" fill="#938b7b" font-size="12">‘A급’으로 평가된 코어 라이브러리</text>
<text x="34" y="158" fill="#b35a38" font-size="62" font-weight="700">57%</text>
<text x="36" y="188" fill="#2a2620" font-size="13.5" font-weight="600">테스트가 실제로 잡은 결함 (mutation score)</text>
<text x="36" y="214" fill="#b35a38" font-size="13">→ 심은 결함의 43%가 그대로 통과</text>
<text x="36" y="238" fill="#938b7b" font-size="12">가장 나쁜 파일은 47%</text>
<rect x="410" y="88" width="18" height="18" rx="3" fill="#5f7355"/>
<rect x="432" y="88" width="18" height="18" rx="3" fill="#5f7355"/>
<rect x="454" y="88" width="18" height="18" rx="3" fill="#5f7355"/>
<rect x="476" y="88" width="18" height="18" rx="3" fill="#5f7355"/>
<rect x="498" y="88" width="18" height="18" rx="3" fill="#5f7355"/>
<rect x="520" y="88" width="18" height="18" rx="3" fill="#5f7355"/>
<rect x="542" y="88" width="18" height="18" rx="3" fill="#5f7355"/>
<rect x="564" y="88" width="18" height="18" rx="3" fill="#5f7355"/>
<rect x="586" y="88" width="18" height="18" rx="3" fill="#5f7355"/>
<rect x="608" y="88" width="18" height="18" rx="3" fill="#5f7355"/>
<rect x="410" y="110" width="18" height="18" rx="3" fill="#5f7355"/>
<rect x="432" y="110" width="18" height="18" rx="3" fill="#5f7355"/>
<rect x="454" y="110" width="18" height="18" rx="3" fill="#5f7355"/>
<rect x="476" y="110" width="18" height="18" rx="3" fill="#5f7355"/>
<rect x="498" y="110" width="18" height="18" rx="3" fill="#5f7355"/>
<rect x="520" y="110" width="18" height="18" rx="3" fill="#5f7355"/>
<rect x="542" y="110" width="18" height="18" rx="3" fill="#5f7355"/>
<rect x="564" y="110" width="18" height="18" rx="3" fill="#5f7355"/>
<rect x="586" y="110" width="18" height="18" rx="3" fill="#5f7355"/>
<rect x="608" y="110" width="18" height="18" rx="3" fill="#5f7355"/>
<rect x="410" y="132" width="18" height="18" rx="3" fill="#5f7355"/>
<rect x="432" y="132" width="18" height="18" rx="3" fill="#5f7355"/>
<rect x="454" y="132" width="18" height="18" rx="3" fill="#5f7355"/>
<rect x="476" y="132" width="18" height="18" rx="3" fill="#5f7355"/>
<rect x="498" y="132" width="18" height="18" rx="3" fill="#5f7355"/>
<rect x="520" y="132" width="18" height="18" rx="3" fill="#5f7355"/>
<rect x="542" y="132" width="18" height="18" rx="3" fill="#5f7355"/>
<rect x="564" y="132" width="18" height="18" rx="3" fill="#5f7355"/>
<rect x="586" y="132" width="18" height="18" rx="3" fill="#5f7355"/>
<rect x="608" y="132" width="18" height="18" rx="3" fill="#5f7355"/>
<rect x="410" y="154" width="18" height="18" rx="3" fill="#5f7355"/>
<rect x="432" y="154" width="18" height="18" rx="3" fill="#5f7355"/>
<rect x="454" y="154" width="18" height="18" rx="3" fill="#5f7355"/>
<rect x="476" y="154" width="18" height="18" rx="3" fill="#5f7355"/>
<rect x="498" y="154" width="18" height="18" rx="3" fill="#5f7355"/>
<rect x="520" y="154" width="18" height="18" rx="3" fill="#5f7355"/>
<rect x="542" y="154" width="18" height="18" rx="3" fill="#5f7355"/>
<rect x="564" y="154" width="18" height="18" rx="3" fill="#5f7355"/>
<rect x="586" y="154" width="18" height="18" rx="3" fill="#5f7355"/>
<rect x="608" y="154" width="18" height="18" rx="3" fill="#5f7355"/>
<rect x="410" y="176" width="18" height="18" rx="3" fill="#5f7355"/>
<rect x="432" y="176" width="18" height="18" rx="3" fill="#5f7355"/>
<rect x="454" y="176" width="18" height="18" rx="3" fill="#5f7355"/>
<rect x="476" y="176" width="18" height="18" rx="3" fill="#5f7355"/>
<rect x="498" y="176" width="18" height="18" rx="3" fill="#5f7355"/>
<rect x="520" y="176" width="18" height="18" rx="3" fill="#5f7355"/>
<rect x="542" y="176" width="18" height="18" rx="3" fill="#5f7355"/>
<rect x="564" y="176" width="18" height="18" rx="3" fill="#5f7355"/>
<rect x="586" y="176" width="18" height="18" rx="3" fill="#5f7355"/>
<rect x="608" y="176" width="18" height="18" rx="3" fill="#5f7355"/>
<rect x="410" y="198" width="18" height="18" rx="3" fill="#5f7355"/>
<rect x="432" y="198" width="18" height="18" rx="3" fill="#5f7355"/>
<rect x="454" y="198" width="18" height="18" rx="3" fill="#5f7355"/>
<rect x="476" y="198" width="18" height="18" rx="3" fill="#5f7355"/>
<rect x="498" y="198" width="18" height="18" rx="3" fill="#5f7355"/>
<rect x="520" y="198" width="18" height="18" rx="3" fill="#5f7355"/>
<rect x="542" y="198" width="18" height="18" rx="3" fill="#5f7355"/>
<rect x="564" y="198" width="18" height="18" rx="3" fill="none" stroke="#b35a38" stroke-width="1.5"/>
<rect x="586" y="198" width="18" height="18" rx="3" fill="none" stroke="#b35a38" stroke-width="1.5"/>
<rect x="608" y="198" width="18" height="18" rx="3" fill="none" stroke="#b35a38" stroke-width="1.5"/>
<rect x="410" y="220" width="18" height="18" rx="3" fill="none" stroke="#b35a38" stroke-width="1.5"/>
<rect x="432" y="220" width="18" height="18" rx="3" fill="none" stroke="#b35a38" stroke-width="1.5"/>
<rect x="454" y="220" width="18" height="18" rx="3" fill="none" stroke="#b35a38" stroke-width="1.5"/>
<rect x="476" y="220" width="18" height="18" rx="3" fill="none" stroke="#b35a38" stroke-width="1.5"/>
<rect x="498" y="220" width="18" height="18" rx="3" fill="none" stroke="#b35a38" stroke-width="1.5"/>
<rect x="520" y="220" width="18" height="18" rx="3" fill="none" stroke="#b35a38" stroke-width="1.5"/>
<rect x="542" y="220" width="18" height="18" rx="3" fill="none" stroke="#b35a38" stroke-width="1.5"/>
<rect x="564" y="220" width="18" height="18" rx="3" fill="none" stroke="#b35a38" stroke-width="1.5"/>
<rect x="586" y="220" width="18" height="18" rx="3" fill="none" stroke="#b35a38" stroke-width="1.5"/>
<rect x="608" y="220" width="18" height="18" rx="3" fill="none" stroke="#b35a38" stroke-width="1.5"/>
<rect x="410" y="242" width="18" height="18" rx="3" fill="none" stroke="#b35a38" stroke-width="1.5"/>
<rect x="432" y="242" width="18" height="18" rx="3" fill="none" stroke="#b35a38" stroke-width="1.5"/>
<rect x="454" y="242" width="18" height="18" rx="3" fill="none" stroke="#b35a38" stroke-width="1.5"/>
<rect x="476" y="242" width="18" height="18" rx="3" fill="none" stroke="#b35a38" stroke-width="1.5"/>
<rect x="498" y="242" width="18" height="18" rx="3" fill="none" stroke="#b35a38" stroke-width="1.5"/>
<rect x="520" y="242" width="18" height="18" rx="3" fill="none" stroke="#b35a38" stroke-width="1.5"/>
<rect x="542" y="242" width="18" height="18" rx="3" fill="none" stroke="#b35a38" stroke-width="1.5"/>
<rect x="564" y="242" width="18" height="18" rx="3" fill="none" stroke="#b35a38" stroke-width="1.5"/>
<rect x="586" y="242" width="18" height="18" rx="3" fill="none" stroke="#b35a38" stroke-width="1.5"/>
<rect x="608" y="242" width="18" height="18" rx="3" fill="none" stroke="#b35a38" stroke-width="1.5"/>
<rect x="410" y="264" width="18" height="18" rx="3" fill="none" stroke="#b35a38" stroke-width="1.5"/>
<rect x="432" y="264" width="18" height="18" rx="3" fill="none" stroke="#b35a38" stroke-width="1.5"/>
<rect x="454" y="264" width="18" height="18" rx="3" fill="none" stroke="#b35a38" stroke-width="1.5"/>
<rect x="476" y="264" width="18" height="18" rx="3" fill="none" stroke="#b35a38" stroke-width="1.5"/>
<rect x="498" y="264" width="18" height="18" rx="3" fill="none" stroke="#b35a38" stroke-width="1.5"/>
<rect x="520" y="264" width="18" height="18" rx="3" fill="none" stroke="#b35a38" stroke-width="1.5"/>
<rect x="542" y="264" width="18" height="18" rx="3" fill="none" stroke="#b35a38" stroke-width="1.5"/>
<rect x="564" y="264" width="18" height="18" rx="3" fill="none" stroke="#b35a38" stroke-width="1.5"/>
<rect x="586" y="264" width="18" height="18" rx="3" fill="none" stroke="#b35a38" stroke-width="1.5"/>
<rect x="608" y="264" width="18" height="18" rx="3" fill="none" stroke="#b35a38" stroke-width="1.5"/>
<rect x="410" y="286" width="18" height="18" rx="3" fill="none" stroke="#b35a38" stroke-width="1.5"/>
<rect x="432" y="286" width="18" height="18" rx="3" fill="none" stroke="#b35a38" stroke-width="1.5"/>
<rect x="454" y="286" width="18" height="18" rx="3" fill="none" stroke="#b35a38" stroke-width="1.5"/>
<rect x="476" y="286" width="18" height="18" rx="3" fill="none" stroke="#b35a38" stroke-width="1.5"/>
<rect x="498" y="286" width="18" height="18" rx="3" fill="none" stroke="#b35a38" stroke-width="1.5"/>
<rect x="520" y="286" width="18" height="18" rx="3" fill="none" stroke="#b35a38" stroke-width="1.5"/>
<rect x="542" y="286" width="18" height="18" rx="3" fill="none" stroke="#b35a38" stroke-width="1.5"/>
<rect x="564" y="286" width="18" height="18" rx="3" fill="none" stroke="#b35a38" stroke-width="1.5"/>
<rect x="586" y="286" width="18" height="18" rx="3" fill="none" stroke="#b35a38" stroke-width="1.5"/>
<rect x="608" y="286" width="18" height="18" rx="3" fill="none" stroke="#b35a38" stroke-width="1.5"/>
<rect x="410" y="316" width="13" height="13" rx="3" fill="#5f7355"/>
<text x="430" y="327" fill="#6f6a5f" font-size="11.5">잡음 (killed)</text>
<rect x="520" y="316" width="13" height="13" rx="3" fill="none" stroke="#b35a38" stroke-width="1.5"/>
<text x="540" y="327" fill="#6f6a5f" font-size="11.5">빠져나감 (survived)</text>
</svg>
