<svg xmlns="http://www.w3.org/2000/svg" viewBox="0 0 720 656" font-family="system-ui, -apple-system, 'Segoe UI', sans-serif">
  <defs>
    <marker id="arr" markerWidth="10" markerHeight="10" refX="8" refY="3" orient="auto" markerUnits="strokeWidth">
      <path d="M0,0 L8,3 L0,6 z" fill="#9aa0a6"/>
    </marker>
  </defs>
  <rect width="720" height="656" fill="#ffffff"/>

  <text x="360" y="32" text-anchor="middle" font-size="16" font-weight="700" fill="#33414d">테스트를 어디에 둘까 — 결정 트리</text>
  <text x="360" y="52" text-anchor="middle" font-size="12.5" fill="#7a8590">칼날: 이 결함을 재현하려면 최소 무엇을 real로 맞물려야 하나?</text>

  <!-- 새 동작 -->
  <rect x="280" y="72" width="160" height="40" rx="9" fill="#eef2f6" stroke="#5f6b76" stroke-width="2"/>
  <text x="360" y="97" text-anchor="middle" font-size="13.5" font-weight="600" fill="#33414d">새 동작 / 버그</text>
  <line x1="360" y1="112" x2="360" y2="138" stroke="#9aa0a6" stroke-width="2" marker-end="url(#arr)"/>

  <!-- Q0 -->
  <rect x="225" y="140" width="270" height="44" rx="9" fill="#e3f0ff" stroke="#1565c0" stroke-width="2"/>
  <text x="360" y="167" text-anchor="middle" font-size="13.5" font-weight="600" fill="#0d3c75">Q0. 값을 타입으로 막을 수 있나?</text>
  <line x1="495" y1="162" x2="533" y2="162" stroke="#9aa0a6" stroke-width="2" marker-end="url(#arr)"/>
  <text x="514" y="154" text-anchor="middle" font-size="11" font-weight="700" fill="#2e7d32">예</text>
  <rect x="535" y="141" width="170" height="42" rx="8" fill="#f5f6f8" stroke="#b8c0c8" stroke-width="1.5"/>
  <text x="620" y="167" text-anchor="middle" font-size="11.5" fill="#4a5560">타입 인코딩 · 테스트 X</text>

  <line x1="360" y1="184" x2="360" y2="210" stroke="#9aa0a6" stroke-width="2" marker-end="url(#arr)"/>
  <text x="375" y="202" font-size="11" fill="#7a8590">아니오</text>

  <!-- Q0b -->
  <rect x="225" y="212" width="270" height="44" rx="9" fill="#e3f0ff" stroke="#1565c0" stroke-width="2"/>
  <text x="360" y="239" text-anchor="middle" font-size="13.5" font-weight="600" fill="#0d3c75">Q0b. 계산 · 분기 로직이 있나?</text>
  <line x1="495" y1="234" x2="533" y2="234" stroke="#9aa0a6" stroke-width="2" marker-end="url(#arr)"/>
  <text x="514" y="226" text-anchor="middle" font-size="10.5" font-weight="700" fill="#c62828">아니오</text>
  <rect x="535" y="210" width="170" height="48" rx="8" fill="#f5f6f8" stroke="#b8c0c8" stroke-width="1.5"/>
  <text x="620" y="230" text-anchor="middle" font-size="11.5" fill="#4a5560">고정값 · 단순 렌더</text>
  <text x="620" y="247" text-anchor="middle" font-size="11" fill="#4a5560">→ 테스트 X (타입/Storybook)</text>

  <line x1="360" y1="256" x2="360" y2="288" stroke="#9aa0a6" stroke-width="2" marker-end="url(#arr)"/>
  <text x="375" y="280" font-size="11" font-weight="700" fill="#2e7d32">예</text>

  <!-- 결함이 어디 사나 -->
  <rect x="220" y="290" width="280" height="46" rx="9" fill="#eef2f6" stroke="#5f6b76" stroke-width="2.5"/>
  <text x="360" y="318" text-anchor="middle" font-size="14" font-weight="700" fill="#33414d">결함이 어디 사나? = 가장 낮은 레벨</text>
  <line x1="360" y1="336" x2="360" y2="358" stroke="#9aa0a6" stroke-width="2" marker-end="url(#arr)"/>

  <!-- rows: fault -> level -->
  <!-- row1 유닛 -->
  <rect x="55" y="360" width="340" height="42" rx="8" fill="#f5f6f8" stroke="#b8c0c8" stroke-width="1.5"/>
  <text x="72" y="386" font-size="12.5" fill="#4a5560">순수 로직 · 계산 · 분기</text>
  <line x1="395" y1="381" x2="441" y2="381" stroke="#9aa0a6" stroke-width="2" marker-end="url(#arr)"/>
  <rect x="443" y="360" width="220" height="42" rx="8" fill="#e8f5e9" stroke="#2e7d32" stroke-width="2"/>
  <text x="553" y="386" text-anchor="middle" font-size="13" font-weight="700" fill="#1b5e20">유닛 (함수 · 훅)</text>

  <!-- row2 컴포넌트 -->
  <rect x="55" y="412" width="340" height="42" rx="8" fill="#f5f6f8" stroke="#b8c0c8" stroke-width="1.5"/>
  <text x="72" y="438" font-size="12.5" fill="#4a5560">단일 컴포넌트 렌더 (props 재현)</text>
  <line x1="395" y1="433" x2="441" y2="433" stroke="#9aa0a6" stroke-width="2" marker-end="url(#arr)"/>
  <rect x="443" y="412" width="220" height="42" rx="8" fill="#e3f0ff" stroke="#1565c0" stroke-width="2"/>
  <text x="553" y="438" text-anchor="middle" font-size="13" font-weight="700" fill="#0d3c75">컴포넌트</text>

  <!-- row3 통합 -->
  <rect x="55" y="464" width="340" height="42" rx="8" fill="#f5f6f8" stroke="#b8c0c8" stroke-width="1.5"/>
  <text x="72" y="490" font-size="12" fill="#4a5560">조각 배선 (props·provider·store·route)</text>
  <line x1="395" y1="485" x2="441" y2="485" stroke="#9aa0a6" stroke-width="2" marker-end="url(#arr)"/>
  <rect x="443" y="464" width="220" height="42" rx="8" fill="#fff3e0" stroke="#ef6c00" stroke-width="2"/>
  <text x="553" y="490" text-anchor="middle" font-size="13" font-weight="700" fill="#e65100">통합 (real + MSW)</text>

  <!-- row4 contract -->
  <rect x="55" y="516" width="340" height="42" rx="8" fill="#f5f6f8" stroke="#b8c0c8" stroke-width="1.5"/>
  <text x="72" y="542" font-size="12.5" fill="#4a5560">네트워크 계약 — 제공자 측</text>
  <line x1="395" y1="537" x2="441" y2="537" stroke="#9aa0a6" stroke-width="2" marker-end="url(#arr)"/>
  <rect x="443" y="516" width="220" height="42" rx="8" fill="#f3e5f5" stroke="#7b1fa2" stroke-width="2"/>
  <text x="553" y="542" text-anchor="middle" font-size="13" font-weight="700" fill="#6a1b9a">contract test</text>

  <!-- row5 e2e -->
  <rect x="55" y="568" width="340" height="42" rx="8" fill="#f5f6f8" stroke="#b8c0c8" stroke-width="1.5"/>
  <text x="72" y="594" font-size="12.5" fill="#4a5560">합쳐진 경로 · 인증 · 배포 형상</text>
  <line x1="395" y1="589" x2="441" y2="589" stroke="#9aa0a6" stroke-width="2" marker-end="url(#arr)"/>
  <rect x="443" y="568" width="220" height="42" rx="8" fill="#ffebee" stroke="#c62828" stroke-width="2"/>
  <text x="553" y="594" text-anchor="middle" font-size="13" font-weight="700" fill="#b71c1c">e2e (critical path만)</text>

  <text x="360" y="638" text-anchor="middle" font-size="11" fill="#7a8590">하나만 둔다 · 같은 실패 모드를 하위가 커버하면 상위 제거</text>
</svg>
