<svg xmlns="http://www.w3.org/2000/svg" width="780" height="400" viewBox="0 0 780 400" font-family="-apple-system,BlinkMacSystemFont,Segoe UI,sans-serif">
<rect width="780" height="400" fill="#0f172a" rx="8"/>
<line x1="48" y1="354.0" x2="760" y2="354.0" stroke="#1e293b" stroke-width="1"/>
<text x="40" y="358.0" fill="#64748b" font-size="11" text-anchor="end">0</text>
<line x1="48" y1="254.0" x2="760" y2="254.0" stroke="#1e293b" stroke-width="1"/>
<text x="40" y="258.0" fill="#64748b" font-size="11" text-anchor="end">20</text>
<line x1="48" y1="154.0" x2="760" y2="154.0" stroke="#1e293b" stroke-width="1"/>
<text x="40" y="158.0" fill="#64748b" font-size="11" text-anchor="end">40</text>
<line x1="48" y1="54.0" x2="760" y2="54.0" stroke="#1e293b" stroke-width="1"/>
<text x="40" y="58.0" fill="#64748b" font-size="11" text-anchor="end">60</text>
<rect x="53.8" y="349.0" width="20.7" height="5.0" fill="#06b6d4" fill-opacity="1" rx="2"/>
<rect x="86.2" y="339.0" width="20.7" height="15.0" fill="#06b6d4" fill-opacity="1" rx="2"/>
<rect x="118.6" y="349.0" width="20.7" height="5.0" fill="#06b6d4" fill-opacity="1" rx="2"/>
<rect x="150.9" y="329.0" width="20.7" height="25.0" fill="#06b6d4" fill-opacity="1" rx="2"/>
<rect x="183.3" y="349.0" width="20.7" height="5.0" fill="#06b6d4" fill-opacity="1" rx="2"/>
<rect x="215.6" y="299.0" width="20.7" height="55.0" fill="#06b6d4" fill-opacity="1" rx="2"/>
<rect x="248.0" y="324.0" width="20.7" height="30.0" fill="#06b6d4" fill-opacity="1" rx="2"/>
<rect x="280.4" y="314.0" width="20.7" height="40.0" fill="#06b6d4" fill-opacity="1" rx="2"/>
<rect x="312.7" y="339.0" width="20.7" height="15.0" fill="#06b6d4" fill-opacity="1" rx="2"/>
<rect x="345.1" y="49.0" width="20.7" height="305.0" fill="#f43f5e" fill-opacity="1" rx="2"/>
<rect x="377.5" y="304.0" width="20.7" height="50.0" fill="#06b6d4" fill-opacity="1" rx="2"/>
<rect x="409.8" y="299.0" width="20.7" height="55.0" fill="#06b6d4" fill-opacity="1" rx="2"/>
<rect x="442.2" y="279.0" width="20.7" height="75.0" fill="#06b6d4" fill-opacity="1" rx="2"/>
<rect x="474.6" y="349.0" width="20.7" height="5.0" fill="#06b6d4" fill-opacity="1" rx="2"/>
<rect x="506.9" y="284.0" width="20.7" height="70.0" fill="#06b6d4" fill-opacity="1" rx="2"/>
<rect x="539.3" y="314.0" width="20.7" height="40.0" fill="#06b6d4" fill-opacity="1" rx="2"/>
<rect x="571.6" y="349.0" width="20.7" height="5.0" fill="#06b6d4" fill-opacity="1" rx="2"/>
<rect x="604.0" y="319.0" width="20.7" height="35.0" fill="#06b6d4" fill-opacity="1" rx="2"/>
<rect x="636.4" y="184.0" width="20.7" height="170.0" fill="#f43f5e" fill-opacity="1" rx="2"/>
<rect x="668.7" y="274.0" width="20.7" height="80.0" fill="#f43f5e" fill-opacity="1" rx="2"/>
<rect x="701.1" y="294.0" width="20.7" height="60.0" fill="#06b6d4" fill-opacity="1" rx="2"/>
<rect x="733.5" y="299.0" width="20.7" height="55.0" fill="#475569" fill-opacity="0.5" rx="2"/>
<line x1="48" y1="277.5" x2="760" y2="277.5" stroke="#f43f5e" stroke-width="1.5" stroke-dasharray="5 4"/>
<text x="760" y="272.5" fill="#f87171" font-size="11" text-anchor="end">관리상한(UCL) ≈ 17 — 이 위는 "사고 배포"</text>
<line x1="48" y1="314.0" x2="760" y2="314.0" stroke="#64748b" stroke-width="1" stroke-dasharray="3 3"/>
<text x="760" y="327.0" fill="#94a3b8" font-size="10" text-anchor="end">정상 중심선 ≈ 8</text>
<text x="355.5" y="43.0" fill="#fca5a5" font-size="11" text-anchor="middle" font-weight="bold">61</text>
<text x="646.7" y="178.0" fill="#fca5a5" font-size="11" text-anchor="middle" font-weight="bold">34</text>
<text x="48" y="386" fill="#64748b" font-size="11">← 시간순 배포 (각 막대 = 한 배포가 흘려보낸 결함 수)</text>
<text x="760" y="386" fill="#475569" font-size="10" text-anchor="end">맨 끝 = 관측 미완결(잠정)</text>
</svg>