<svg xmlns="http://www.w3.org/2000/svg" width="940" height="210" viewBox="0 0 940 210" font-family="-apple-system,BlinkMacSystemFont,Segoe UI,sans-serif">
<rect width="940" height="210" fill="#0f172a" rx="8"/>
<text x="24" y="34" fill="#e2e8f0" font-size="15" font-weight="bold">측정의 진화 — CFR에서 시작한다</text>
<rect x="20" y="64" width="280" height="110" fill="#1e293b" stroke="#22d3ee" stroke-width="2" rx="10"/>
<rect x="36" y="78" width="46" height="20" fill="#22d3ee" fill-opacity="0.18" stroke="#22d3ee" stroke-width="1" rx="10"/>
<text x="59" y="92" fill="#22d3ee" font-size="11" text-anchor="middle">지금</text>
<text x="36" y="126" fill="#22d3ee" font-size="15" font-weight="bold">① CFR (배포당 escape)</text>
<text x="36" y="150" fill="#94a3b8" font-size="12">지금 가능 · caught 불필요</text>
<line x1="306" y1="119.0" x2="324" y2="119.0" stroke="#64748b" stroke-width="2"/>
<polygon points="324,114.0 332,119.0 324,124.0" fill="#64748b"/>
<rect x="330" y="64" width="280" height="110" fill="#1e293b" stroke="#38bdf8" stroke-width="2" rx="10"/>
<rect x="346" y="78" width="46" height="20" fill="#38bdf8" fill-opacity="0.18" stroke="#38bdf8" stroke-width="1" rx="10"/>
<text x="369" y="92" fill="#38bdf8" font-size="11" text-anchor="middle">다음</text>
<text x="346" y="126" fill="#38bdf8" font-size="15" font-weight="bold">② DRE / DDP / PCE</text>
<text x="346" y="150" fill="#94a3b8" font-size="12">검증 효율 · ‘개발 테스트’ 쌓이면</text>
<line x1="616" y1="119.0" x2="634" y2="119.0" stroke="#64748b" stroke-width="2"/>
<polygon points="634,114.0 642,119.0 634,124.0" fill="#64748b"/>
<rect x="640" y="64" width="280" height="110" fill="#1e293b" stroke="#a78bfa" stroke-width="2" rx="10"/>
<rect x="656" y="78" width="46" height="20" fill="#a78bfa" fill-opacity="0.18" stroke="#a78bfa" stroke-width="1" rx="10"/>
<text x="679" y="92" fill="#a78bfa" font-size="11" text-anchor="middle">이후</text>
<text x="656" y="126" fill="#a78bfa" font-size="15" font-weight="bold">③ Capture-Recapture</text>
<text x="656" y="150" fill="#94a3b8" font-size="12">두 검증의 겹침으로 놓친 결함 추정</text>
</svg>