<svg xmlns="http://www.w3.org/2000/svg" width="470" height="352" viewBox="0 0 470 352" font-family="-apple-system,BlinkMacSystemFont,Segoe UI,sans-serif">
<rect width="470" height="352" fill="#0f172a" rx="8"/>
<text x="26" y="30" fill="#e2e8f0" font-size="15" font-weight="bold">코드에 심은 결함 100개 — 테스트는 몇 개를 잡았나?</text>
<text x="26" y="50" fill="#94a3b8" font-size="12">"A급"으로 평가받은 라이브러리의 mutation score = 57%</text>
<circle cx="37" cy="75" r="7" fill="#22d3ee"/>
<circle cx="59" cy="75" r="7" fill="#22d3ee"/>
<circle cx="81" cy="75" r="7" fill="#22d3ee"/>
<circle cx="103" cy="75" r="7" fill="#22d3ee"/>
<circle cx="125" cy="75" r="7" fill="#22d3ee"/>
<circle cx="147" cy="75" r="7" fill="#22d3ee"/>
<circle cx="169" cy="75" r="7" fill="#22d3ee"/>
<circle cx="191" cy="75" r="7" fill="#22d3ee"/>
<circle cx="213" cy="75" r="7" fill="#22d3ee"/>
<circle cx="235" cy="75" r="7" fill="#22d3ee"/>
<circle cx="37" cy="97" r="7" fill="#22d3ee"/>
<circle cx="59" cy="97" r="7" fill="#22d3ee"/>
<circle cx="81" cy="97" r="7" fill="#22d3ee"/>
<circle cx="103" cy="97" r="7" fill="#22d3ee"/>
<circle cx="125" cy="97" r="7" fill="#22d3ee"/>
<circle cx="147" cy="97" r="7" fill="#22d3ee"/>
<circle cx="169" cy="97" r="7" fill="#22d3ee"/>
<circle cx="191" cy="97" r="7" fill="#22d3ee"/>
<circle cx="213" cy="97" r="7" fill="#22d3ee"/>
<circle cx="235" cy="97" r="7" fill="#22d3ee"/>
<circle cx="37" cy="119" r="7" fill="#22d3ee"/>
<circle cx="59" cy="119" r="7" fill="#22d3ee"/>
<circle cx="81" cy="119" r="7" fill="#22d3ee"/>
<circle cx="103" cy="119" r="7" fill="#22d3ee"/>
<circle cx="125" cy="119" r="7" fill="#22d3ee"/>
<circle cx="147" cy="119" r="7" fill="#22d3ee"/>
<circle cx="169" cy="119" r="7" fill="#22d3ee"/>
<circle cx="191" cy="119" r="7" fill="#22d3ee"/>
<circle cx="213" cy="119" r="7" fill="#22d3ee"/>
<circle cx="235" cy="119" r="7" fill="#22d3ee"/>
<circle cx="37" cy="141" r="7" fill="#22d3ee"/>
<circle cx="59" cy="141" r="7" fill="#22d3ee"/>
<circle cx="81" cy="141" r="7" fill="#22d3ee"/>
<circle cx="103" cy="141" r="7" fill="#22d3ee"/>
<circle cx="125" cy="141" r="7" fill="#22d3ee"/>
<circle cx="147" cy="141" r="7" fill="#22d3ee"/>
<circle cx="169" cy="141" r="7" fill="#22d3ee"/>
<circle cx="191" cy="141" r="7" fill="#22d3ee"/>
<circle cx="213" cy="141" r="7" fill="#22d3ee"/>
<circle cx="235" cy="141" r="7" fill="#22d3ee"/>
<circle cx="37" cy="163" r="7" fill="#22d3ee"/>
<circle cx="59" cy="163" r="7" fill="#22d3ee"/>
<circle cx="81" cy="163" r="7" fill="#22d3ee"/>
<circle cx="103" cy="163" r="7" fill="#22d3ee"/>
<circle cx="125" cy="163" r="7" fill="#22d3ee"/>
<circle cx="147" cy="163" r="7" fill="#22d3ee"/>
<circle cx="169" cy="163" r="7" fill="#22d3ee"/>
<circle cx="191" cy="163" r="7" fill="#22d3ee"/>
<circle cx="213" cy="163" r="7" fill="#22d3ee"/>
<circle cx="235" cy="163" r="7" fill="#22d3ee"/>
<circle cx="37" cy="185" r="7" fill="#22d3ee"/>
<circle cx="59" cy="185" r="7" fill="#22d3ee"/>
<circle cx="81" cy="185" r="7" fill="#22d3ee"/>
<circle cx="103" cy="185" r="7" fill="#22d3ee"/>
<circle cx="125" cy="185" r="7" fill="#22d3ee"/>
<circle cx="147" cy="185" r="7" fill="#22d3ee"/>
<circle cx="169" cy="185" r="7" fill="#22d3ee"/>
<circle cx="191" cy="185" r="7" fill="#f43f5e"/>
<circle cx="213" cy="185" r="7" fill="#f43f5e"/>
<circle cx="235" cy="185" r="7" fill="#f43f5e"/>
<circle cx="37" cy="207" r="7" fill="#f43f5e"/>
<circle cx="59" cy="207" r="7" fill="#f43f5e"/>
<circle cx="81" cy="207" r="7" fill="#f43f5e"/>
<circle cx="103" cy="207" r="7" fill="#f43f5e"/>
<circle cx="125" cy="207" r="7" fill="#f43f5e"/>
<circle cx="147" cy="207" r="7" fill="#f43f5e"/>
<circle cx="169" cy="207" r="7" fill="#f43f5e"/>
<circle cx="191" cy="207" r="7" fill="#f43f5e"/>
<circle cx="213" cy="207" r="7" fill="#f43f5e"/>
<circle cx="235" cy="207" r="7" fill="#f43f5e"/>
<circle cx="37" cy="229" r="7" fill="#f43f5e"/>
<circle cx="59" cy="229" r="7" fill="#f43f5e"/>
<circle cx="81" cy="229" r="7" fill="#f43f5e"/>
<circle cx="103" cy="229" r="7" fill="#f43f5e"/>
<circle cx="125" cy="229" r="7" fill="#f43f5e"/>
<circle cx="147" cy="229" r="7" fill="#f43f5e"/>
<circle cx="169" cy="229" r="7" fill="#f43f5e"/>
<circle cx="191" cy="229" r="7" fill="#f43f5e"/>
<circle cx="213" cy="229" r="7" fill="#f43f5e"/>
<circle cx="235" cy="229" r="7" fill="#f43f5e"/>
<circle cx="37" cy="251" r="7" fill="#f43f5e"/>
<circle cx="59" cy="251" r="7" fill="#f43f5e"/>
<circle cx="81" cy="251" r="7" fill="#f43f5e"/>
<circle cx="103" cy="251" r="7" fill="#f43f5e"/>
<circle cx="125" cy="251" r="7" fill="#f43f5e"/>
<circle cx="147" cy="251" r="7" fill="#f43f5e"/>
<circle cx="169" cy="251" r="7" fill="#f43f5e"/>
<circle cx="191" cy="251" r="7" fill="#f43f5e"/>
<circle cx="213" cy="251" r="7" fill="#f43f5e"/>
<circle cx="235" cy="251" r="7" fill="#f43f5e"/>
<circle cx="37" cy="273" r="7" fill="#f43f5e"/>
<circle cx="59" cy="273" r="7" fill="#f43f5e"/>
<circle cx="81" cy="273" r="7" fill="#f43f5e"/>
<circle cx="103" cy="273" r="7" fill="#f43f5e"/>
<circle cx="125" cy="273" r="7" fill="#f43f5e"/>
<circle cx="147" cy="273" r="7" fill="#f43f5e"/>
<circle cx="169" cy="273" r="7" fill="#f43f5e"/>
<circle cx="191" cy="273" r="7" fill="#f43f5e"/>
<circle cx="213" cy="273" r="7" fill="#f43f5e"/>
<circle cx="235" cy="273" r="7" fill="#f43f5e"/>
<circle cx="32" cy="310" r="6" fill="#22d3ee"/><text x="44" y="314" fill="#cbd5e1" font-size="12.5">테스트가 잡은 결함 — 57</text>
<circle cx="256" cy="310" r="6" fill="#f43f5e"/><text x="268" y="314" fill="#fca5a5" font-size="12.5">그냥 통과한 결함 — 43</text>
</svg>